<svg width="257" height="180" viewBox="0 0 257 180" fill="none" xmlns="http://www.w3.org/2000/svg">
<g clip-path="url(#clip0_199_99)">
<mask id="mask0_199_99" style="mask-type:luminance" maskUnits="userSpaceOnUse" x="0" y="0" width="257" height="180">
<path d="M257 0.0498047H0V179.95H257V0.0498047Z" fill="white"/>
</mask>
<g mask="url(#mask0_199_99)">
<path d="M75.5529 34.2549C79.9061 62.8921 78.6736 71.3626 109.146 74.5358C79.1456 78.4695 78.6998 87.2809 75.5529 114.843C71.3831 87.1236 72.1961 78.8104 41.9592 74.5358C72.4059 71.3888 71.3831 62.8659 75.5529 34.2549Z" fill="#FFE200"/>
<path d="M163.772 22.7329C170.38 67.131 168.44 80.1909 215.041 85.1473C169.226 91.2576 168.623 104.921 163.772 147.588C157.347 104.475 158.579 91.8346 112.398 85.1473C158.999 80.2695 157.425 67.131 163.772 22.7329Z" fill="#FFE300"/>
<path d="M115.506 104.558C117.945 120.24 117.211 124.855 134.152 126.612C117.473 128.737 117.263 133.588 115.506 148.615C113.199 133.457 113.644 128.946 96.8344 126.612C113.775 124.855 113.199 120.214 115.506 104.558Z" fill="#FFE300"/>
</g>
</g>
<defs>
<clipPath id="clip0_199_99">
<rect width="257" height="180" fill="white"/>
</clipPath>
</defs>
</svg>
